<svg xmlns="http://www.w3.org/2000/svg" width="70" height="90" fill="none" viewBox="0 0 70 90">
  <path fill="url(#a)" fill-opacity=".9" d="M.544 90V.4H37.92c5.717 0 10.539.853 14.464 2.56 3.925 1.707 6.87 4.267 8.832 7.68 2.048 3.328 3.072 7.424 3.072 12.288s-1.365 9.003-4.096 12.416c-2.645 3.413-6.357 5.76-11.136 7.04v-2.56c4.01.853 7.51 2.39 10.496 4.608 2.987 2.133 5.29 4.821 6.912 8.064 1.707 3.243 2.56 6.955 2.56 11.136 0 4.267-.683 8.064-2.048 11.392-1.28 3.243-3.243 5.973-5.888 8.192-2.56 2.219-5.675 3.925-9.344 5.12C48.074 89.446 43.894 90 39.2 90H.544Zm13.824-13.312h24.064c3.499 0 6.443-.512 8.832-1.536 2.475-1.024 4.352-2.517 5.632-4.48 1.365-2.048 2.048-4.48 2.048-7.296 0-2.645-.725-4.907-2.176-6.784-1.365-1.877-3.328-3.285-5.888-4.224-2.56-1.024-5.59-1.536-9.088-1.536H14.368v25.856Zm0-39.168h22.784c2.56 0 4.821-.512 6.784-1.536 2.048-1.024 3.627-2.432 4.736-4.224 1.195-1.792 1.792-3.84 1.792-6.144 0-3.84-1.28-6.784-3.84-8.832-2.56-2.048-6.23-3.072-11.008-3.072H14.368V37.52Z"/>
  <defs>
    <linearGradient id="a" x1="32" x2="32" y1="-38" y2="98" gradientUnits="userSpaceOnUse">
      <stop stop-color="#3800FF"/>
      <stop offset="1" stop-color="#A06FF9"/>
    </linearGradient>
  </defs>
</svg>
