<svg xmlns="http://www.w3.org/2000/svg" viewBox="0 0 32 32" id="car"><path fill="#90cff1" d="M8.722 5h13.555a2 2 0 0 1 1.978 1.703L25.5 15h-20l1.245-8.297A1.998 1.998 0 0 1 8.722 5z"></path><path fill="#72b7e5" d="m25.171 12.804-.915-6.101A2 2 0 0 0 22.278 5h-3a2 2 0 0 1 1.978 1.703l.226 1.508a4 4 0 0 1-3.956 4.593H5.829L5.5 15h20l-.329-2.196z"></path><path fill="#4c6d86" d="M17 7.304h-1V4.5a.5.5 0 0 0-1 0v2.804h-1a.5.5 0 0 0 0 1h3a.5.5 0 0 0 0-1z"></path><path fill="#3c3b42" d="M6 11.804H3a1 1 0 0 1-1-1v-1a1 1 0 0 1 1-1h3.5l-.5 3z"></path><path fill="#2b2a2f" d="m4.5 8.804-.5 3h2l.5-3z"></path><path fill="#3c3b42" d="M24.5 8.804H28a1 1 0 0 1 1 1v1a1 1 0 0 1-1 1h-3.167l-.333-3z"></path><path fill="#2b2a2f" d="m25.5 8.804.333 3h1l-.333-3z"></path><path fill="#eff2fa" d="M23.929 6.33a.5.5 0 0 0-.707 0l-1.236 1.236a.5.5 0 0 0 .708.707l1.236-1.236a.501.501 0 0 0-.001-.707zM20.96 8.591l-.194.194a.5.5 0 0 0 .708.708l.194-.194a.5.5 0 0 0-.708-.708zm1.349-2.377a.5.5 0 0 0-.707-.707l-1.616 1.616a.5.5 0 0 0 .708.707l1.615-1.616zm-3.543 2.129-.194.194a.5.5 0 0 0 .708.707l.194-.194a.5.5 0 0 0-.708-.707zM13.708 9.053a.5.5 0 0 0-.707 0l-1.236 1.236a.5.5 0 0 0 .708.707l1.236-1.236a.501.501 0 0 0-.001-.707zm-2.969 2.262-.194.194a.5.5 0 0 0 .708.708l.194-.194a.5.5 0 0 0-.708-.708zm1.348-2.377a.5.5 0 0 0-.707-.707L9.764 9.847a.5.5 0 0 0 .708.707l1.615-1.616zm-3.543 2.129-.194.194a.5.5 0 0 0 .708.707l.194-.194a.5.5 0 0 0-.708-.707z" opacity=".25"></path><path fill="#f04c4d" d="M26.661 16H4.339l1.416-9.445A2.985 2.985 0 0 1 8.723 4h13.555a2.985 2.985 0 0 1 2.968 2.554L26.661 16zm-20-2h17.678l-1.072-7.148a1.007 1.007 0 0 0-.99-.852H8.723c-.492 0-.916.366-.99.853L6.661 14z"></path><path fill="#e13340" d="m24.159 12.804.18 1.196H6.661l.179-1.196H5c-.063 0-.123.013-.185.019L4.339 16h22.322l-.476-3.177c-.062-.006-.122-.019-.185-.019h-1.841z"></path><path fill="#3c3b42" d="M7 26.804H5a1 1 0 0 1-1-1v-3h4v3a1 1 0 0 1-1 1z"></path><path fill="#2b2a2f" d="M4 22.804h4v2H4z"></path><path fill="#3c3b42" d="M26 26.804h-2a1 1 0 0 1-1-1v-3h4v3a1 1 0 0 1-1 1z"></path><path fill="#2b2a2f" d="M23 22.804h4v2h-4zm-17 2a.5.5 0 0 1-.5-.5v-.5a.5.5 0 0 1 1 0v.5a.5.5 0 0 1-.5.5zm0 1a.5.5 0 0 0-.5.5v.5h1v-.5a.5.5 0 0 0-.5-.5z"></path><path fill="#2b2a2f" d="M25 24.804a.5.5 0 0 1-.5-.5v-.5a.5.5 0 0 1 1 0v.5a.5.5 0 0 1-.5.5zm0 1a.5.5 0 0 0-.5.5v.5h1v-.5a.5.5 0 0 0-.5-.5z"></path><path fill="#f04c4d" d="M9 21.804v1a1 1 0 0 1-1 1H4a1 1 0 0 1-1-1v-7a2 2 0 0 1 2-2h21a2 2 0 0 1 2 2v7a1 1 0 0 1-1 1h-4a1 1 0 0 1-1-1v-1H9z"></path><path fill="#e13340" d="M26 13.804h-2a2 2 0 0 1 2 2v7a1 1 0 0 1-1 1h2a1 1 0 0 0 1-1v-7a2 2 0 0 0-2-2zm-19 9a1 1 0 0 1-1 1h2a1 1 0 0 0 1-1v-1H8a1 1 0 0 0-1 1z"></path><path fill="#e13340" d="M19.679 19.804h-8.357a2.002 2.002 0 0 1-1.702-.949L6.5 13.804h18l-3.12 5.051a1.999 1.999 0 0 1-1.701.949z"></path><path fill="#e13340" d="M19.679 19.804h-8.357a2.002 2.002 0 0 1-1.702-.949L6.5 13.804h18l-3.12 5.051a1.999 1.999 0 0 1-1.701.949z"></path><path fill="#ffcc5c" d="M8.066 19.804H5.5a.5.5 0 0 1-.5-.5v-2a.5.5 0 0 1 .5-.5h.965a1 1 0 0 1 .832.445l1.185 1.777a.5.5 0 0 1-.416.778zm14.868 0H25.5a.5.5 0 0 0 .5-.5v-2a.5.5 0 0 0-.5-.5h-1.232a.501.501 0 0 0-.416.223l-1.333 2a.5.5 0 0 0 .415.777z"></path><path fill="#c52e3f" d="M14.5 18.304a.5.5 0 0 1-.5-.5v-1a.5.5 0 0 1 1 0v1a.5.5 0 0 1-.5.5zm-2 0a.5.5 0 0 1-.5-.5v-1a.5.5 0 0 1 1 0v1a.5.5 0 0 1-.5.5zm4 0a.5.5 0 0 1-.5-.5v-1a.5.5 0 0 1 1 0v1a.5.5 0 0 1-.5.5zm2 0a.5.5 0 0 1-.5-.5v-1a.5.5 0 0 1 1 0v1a.5.5 0 0 1-.5.5z"></path></svg>