<svg xmlns="http://www.w3.org/2000/svg" width="756" height="426" fill="none" viewBox="0 0 756 426">
  <g clip-path="url(#a)">
    <path fill="#A0616A" d="m288.835 92.639 4.709-17.262-21.191-7.846-2.354 15.692 18.836 9.416Z"/>
    <path fill="#000" d="m288.835 93.478 4.709-17.262-12.48-5.262 3.877 20.35 3.894 2.174Z" opacity=".1"/>
    <path fill="#A0616A" d="M394.909 184.128c2.531-3.971-.477-10.413-6.718-14.389-2.732-1.741-5.631-2.72-8.239-2.939l-3.619-2.242-47.782-32.35s-32.376-36.902-39.436-39.78c-7.06-2.876-12.92 1.59-12.92 1.59l-3.171 7.986 50.771 49.791 43.204 22.852 5.882 3.245c1.3 2.272 3.412 4.485 6.144 6.225 6.241 3.977 13.353 3.982 15.884.011Z"/>
    <path fill="#E6E6E6" d="M271.744 74.989s-8.141 3.713-10.054 12.452c-1.913 8.74 59.707 65.341 59.707 65.341l21.116-11.59-70.769-66.203Z"/>
    <path fill="#A0616A" d="M309.633 56.993c0 12.133-9.839 21.97-21.976 21.97-12.136 0-21.975-9.837-21.975-21.97s9.839-21.97 21.975-21.97c12.137 0 21.976 9.837 21.976 21.97Zm29.431 318.947 14.912 36.877 8.633-8.631 3.14-16.477-12.558-15.692-14.127 3.923Zm-84.644-7.497-6.62 21.826 12.189 10.041 13.39-8.52-1.746-23.263-17.213-.084Zm44.225-211.803 1.962 31.777-48.66-8.631 3.14-19.616 43.558-3.53Z"/>
    <path fill="#2F2E41" d="m301 188.809-49.053-16.085s-18.051 36.093 1.57 58.846c19.621 22.754 84.762 152.216 84.762 152.216l19.621-9.415-28.254-82.385-31.393-76.108L301 188.809Z"/>
    <path fill="#2F2E41" d="m245.301 214.525 16.232 82.937-10.062 74.007 23.428 2.476 19.63-91.132-7.075-60.388-42.153-7.9Zm127.511 170.046h13.593s15.86-6.277 19.578 0c3.717 6.277-16.586 24.079-16.586 24.079s-28.357 15.936-32.281 15.152c-3.925-.785-5.494-10.2-5.494-10.2l-4.709-10.985 7.063 2.354s9.418-5.492 7.064-14.908l11.772-5.492Zm-121.187 6.575-3.186-7.17-5.153 10.873s-11.667 11.189 3.87 17.169c15.537 5.979 34.263 11.402 34.263 11.402s24.067-3.817 22.634-10.908c-1.432-7.09-4.027-9.065-4.027-9.065l-9.597-.339-15.455-15.46-10.839 6.529-12.51-3.031Zm29.361-329.837 7.064-.785L301 47.578s11.772 6.277 11.772 1.569c0-21.97-13.342-21.185-24.33-22.754-10.987-1.57-9.81-1.962-13.342 3.923-1.615 2.691-7.456 4.316-7.456 4.316s-10.988-14.908-16.482 3.138c-5.493 18.046 1.57 73.754-3.924 78.462-5.494 4.707 22.558 9.408 19.52-9.027-3.038-18.435-8.532-46.681-5.393-52.958 3.14-6.277 3.925-4.708 3.925-4.708-3.891-1.588-6.433 26.384 8.236 27.753l.397-13.63s2.354-7.061 7.063-2.353Z"/>
    <path fill="#E6E6E6" d="m290.797 88.378-23.545-9.416-31.394 94.155 64.592-2.353 5.816-28.102s5.679-14.626.97-23.256c-4.71-8.631-16.439-31.028-16.439-31.028Z"/>
    <path fill="#A0616A" d="M229.529 246.098c4.692.403 9.009-5.246 9.643-12.618.277-3.227-.198-6.249-1.213-8.661l.311-4.244 6.54-57.321s12.174-46.888 11.454-54.476c-.72-7.588-1.858-9.603-1.858-9.603l-8.547.891-20.615 68.048-.241 48.864-.152 6.716c-1.412 2.203-2.395 5.1-2.672 8.327-.633 7.372 2.657 13.674 7.35 14.077Z"/>
    <path fill="#E6E6E6" d="M269.214 86.416s-7.064-5.492-15.697-3.138-30.26 83.169-30.26 83.169l20.057 13.339 25.9-93.37Z"/>
    <path fill="#FFB6B6" d="m741.104 66.603-13.768-25.56-19.175 15.237 7.375 19.17 25.568-8.847Z"/>
    <path fill="#000" d="m741.104 66.603-13.768-25.56-19.175 15.237 7.375 19.17 25.568-8.847Z" opacity=".1"/>
    <path fill="#FFB6B6" d="M708.211 57.069c12.649 0 22.903-10.251 22.903-22.897 0-12.645-10.254-22.896-22.903-22.896s-22.903 10.251-22.903 22.896c0 12.646 10.254 22.897 22.903 22.897Zm-43.754-10.971c-1.823-6.536-6.674-10.893-10.835-9.733-4.16 1.16-6.054 7.4-4.229 13.938a16.981 16.981 0 0 0 3.823 7.05l8.075 27.597 12.873-4.064-9.327-26.774a16.983 16.983 0 0 0-.38-8.014Z"/>
    <path fill="#E6E6E6" d="m729.695 63.027-41.698 31.207-20.974-32.713-13.846-.233s1.87 54.387 21.188 58.982c19.318 4.594 72.372-21.178 74.209-37.16 1.838-15.981-18.879-20.083-18.879-20.083Z"/>
    <path fill="#FFB6B6" d="m672.204 417.527-11.993-.001-5.705-46.245 17.7.001-.002 46.245Z"/>
    <path fill="#2F2E41" d="M631.115 417.255c-.373.629-.57 2.658-.57 3.389a4.07 4.07 0 0 0 4.07 4.069h37.14a2.776 2.776 0 0 0 2.777-2.776v-1.546s1.837-4.646-1.946-10.372c0 0-4.701 4.484-11.726-2.539l-2.071-3.752-14.996 10.964-8.312 1.023c-1.818.223-3.43-.035-4.366 1.54Z"/>
    <path fill="#FFB6B6" d="m709.752 417.527-11.992-.001-5.705-46.245 17.7.001-.003 46.245Z"/>
    <path fill="#2F2E41" d="M668.664 417.255c-.373.629-.57 2.658-.57 3.389a4.07 4.07 0 0 0 4.07 4.069h37.14a2.777 2.777 0 0 0 2.777-2.776v-1.546s1.837-4.646-1.946-10.372c0 0-4.701 4.484-11.726-2.539l-2.072-3.752-14.995 10.964-8.312 1.023c-1.818.223-3.431-.035-4.366 1.54ZM657.361 186.44l-10.92 30.771 7.649 176.541 19.469 1.39 14.603-130.66 2.086 135.527 21.556 1.39 15.831-205.346s4.92-14.595-10.377-21.547c-15.298-6.951-59.897 11.934-59.897 11.934Z"/>
    <path fill="#E6E6E6" d="m654.147 184.656 75.648 7.292s-2.459-29.985 18.192-61.444c20.651-31.459-7.867-69.308-7.867-69.308l-28.026-1.966-30.484 13.763-5.062 57.623-22.401 54.04Z"/>
    <path fill="#2F2E41" d="M731.761 53.331s13.768-25.56 3.934-36.375C725.861 6.142 719.469-4.18 707.669 1.72c-11.801 5.898-37.86 22.12-28.026 26.052 9.833 3.932 18.684 2.949 18.684 2.949s-1.548 7.346 3.651 10.063c5.199 2.717 8.641 7.141 8.641 7.141s5.9-6.882 8.85-2.95c2.95 3.933 12.292 8.357 12.292 8.357Zm-67.36 4.424-28.518 16.713s-6.141 11.557 10.451 19.296l30.359-20.771 8.244 7.259 10.931-6.767-7.867-24.578-8.85-6.881-7.867.983-5.9-3.933-11.801 12.78 10.818 5.899Z"/>
    <path fill="#FFB6B6" d="M671.768 64.394c-1.824-6.537-6.675-10.894-10.836-9.733-4.16 1.16-6.054 7.399-4.229 13.937a16.981 16.981 0 0 0 3.823 7.05l8.075 27.597 12.873-4.064-9.327-26.774a16.996 16.996 0 0 0-.379-8.013Z"/>
    <path fill="#E6E6E6" d="m737.005 81.323-41.698 31.207-20.973-32.714-13.847-.232s1.87 54.386 21.188 58.981c19.319 4.595 72.372-21.177 74.21-37.159 1.837-15.982-18.88-20.084-18.88-20.084Zm-596.41 197.591c0 3.103-7.537-58.511-7.537-58.511l-54.847 6.646c-9.901 1.2-16.71 10.537-14.825 20.328l10.257 53.257c.883 1.071 2.243 2.081 3.99 3.026v120.645h7.538V306.661c6.067 1.845 13.9 3.278 22.613 4.206v113.438h7.538V311.53c12.747.887 26.709.739 39.462-.698v113.473h7.538V309.802c2.281-.369 4.504-.784 6.651-1.249v115.752h7.537V306.617c4.1-1.244 7.773-2.715 10.863-4.432 27.934-15.514-46.778-26.374-46.778-23.271Z"/>
    <path fill="#FFB6B6" d="m195.822 391.523 9.289 9.286 12.826 6.633-1.327 11.496-24.326-2.653-3.096-6.19.884-5.306-1.769-8.402 7.519-4.864Z"/>
    <path fill="#2F2E41" d="m214.841 414.516.76-9.755 26.221 12.408s2.03 5.749-4.293 6.633c-6.323.885-48.341.885-48.341-1.326 0-2.211-1.15-13.53-1.15-13.53l25.476 7.339 1.327-1.769Z"/>
    <path fill="#FFB6B6" d="m162.415 365.731-6.719 11.285-3.275 14.061-11.473 1.542-3.412-24.226 5.241-4.522 5.362-.448 7.71-3.781 6.566 6.089Z"/>
    <path fill="#2F2E41" d="m144.8 389.817 9.645-1.664-5.581 28.46s-5.074 3.382-7.487-2.528c-2.412-5.909-12.748-46.625-10.604-47.169 2.143-.544 12.835-4.442 12.835-4.442l-.85 26.492 2.042.851Z"/>
    <path fill="#FFB6B6" d="m133.28 154.577-1.331 27.04 21.283.443v-23.261l-19.952-4.222Z"/>
    <path fill="#000" d="m133.28 154.577-1.331 27.04 21.283.443v-23.261l-19.952-4.222Z" opacity=".1"/>
    <path fill="#2F2E41" d="M97.365 266.281s-9.755 25.266-2.66 35.461c7.094 10.195 40.348 15.958 40.348 15.958l13.745 12.854 36.358 70.037 21.283-4.876-30.151-71.81s-17.735-28.812-24.386-32.801c-6.651-3.99-19.035-18.968-19.035-18.968l-35.502-5.855Z"/>
    <path fill="#2F2E41" d="m157.666 268.497 13.658 9.67s48.417 12.937 32.898 43.079c-15.519 30.142-38.575 51.862-38.575 51.862l-20.396-11.525 32.811-46.1-57.641-35.018 37.245-11.968Z"/>
    <path fill="#FFB6B6" d="M281.811 231.741c6.419 1.291 10.955 5.648 10.132 9.731-.822 4.083-6.691 6.346-13.112 5.054a16.398 16.398 0 0 1-7.055-3.178l-27.125-5.814 2.327-10.718 27.095 5.127a16.373 16.373 0 0 1 7.738-.202Z"/>
    <path fill="#6C63FF" d="M152.124 172.086h-27.592l-20.295 13.742 1.774 54.078s3.708 13.58-8.868 26.153c-7.538 7.536-4.877 11.968-4.877 11.968l44.782 3.546 26.826-7.757-9.755-24.379 1.773-7.536s18.18-12.855 15.076-26.153c-3.104-13.298-7.094-40.78-7.094-40.78l-11.75-2.882Z"/>
    <path fill="#6C63FF" d="m217.038 217.818-53.522-42.88s-10.419 2.83-9.071 12.649c1.348 9.82 25.104 34.658 25.104 34.658l40.84 18.524 46.762 2.389 1.927-13.671-52.04-11.669Z"/>
    <path fill="#FFB6B6" d="M145.916 167.21c10.285 0 18.623-8.335 18.623-18.617s-8.338-18.617-18.623-18.617c-10.285 0-18.622 8.335-18.622 18.617s8.337 18.617 18.622 18.617Z"/>
    <path fill="#2F2E41" d="M140.817 152.361s8.868-8.422 12.415-12.411c3.547-3.99 18.623 6.205 15.519-1.33-3.104-7.536-7.538-9.309-7.538-9.309s-7.981-15.957-23.5-6.649c0 0 0-9.752-12.415-5.762-12.414 3.989-18.179 40.78-14.631 44.326 3.547 3.547 7.094 6.206 4.433 12.855-2.66 6.649 0 36.348 9.755 40.337 9.755 3.99 11.528 6.81 8.868 13.157s-9.311 20.532 3.104 16.986c12.415-3.547-.887.886 4.434-10.639 5.32-11.525 18.179-16.844 7.981-27.039-10.198-10.195-9.755-31.472-11.972-33.688-2.217-2.217-6.393-20.675-6.393-20.675s7.28-4.592 9.94-.159Z"/>
    <path fill="#3F3D56" d="M744.366 425.1H0v-1.678h744.366a.84.84 0 0 1 0 1.678Z"/>
    <path fill="#fff" d="M357.6 423.585H189.91c-11.096 0-20.123-9.024-20.123-20.119V164.542c0-11.094 9.027-20.118 20.123-20.118H357.6c11.096 0 20.122 9.024 20.122 20.118v238.924c0 11.095-9.026 20.119-20.122 20.119Z"/>
    <path fill="#3F3D56" d="M357.599 426H189.91c-12.428 0-22.539-10.108-22.539-22.533V164.542c0-12.425 10.111-22.534 22.539-22.534h167.689c12.428 0 22.539 10.109 22.539 22.534v238.925c0 12.425-10.111 22.533-22.539 22.533ZM189.91 143.686c-11.503 0-20.86 9.356-20.86 20.856v238.925c0 11.5 9.357 20.855 20.86 20.855h167.689c11.503 0 20.861-9.355 20.861-20.855V164.542c0-11.5-9.358-20.856-20.861-20.856H189.91Z"/>
    <path fill="#6C63FF" d="m207.707 235.507 131.086-3.962c9.105-.275 9.978-14.512.791-14.234l-131.086 3.961c-9.105.276-9.978 14.513-.791 14.235Zm0 47.522 131.086-3.962c9.105-.275 9.978-14.512.791-14.234l-131.086 3.961c-9.105.276-9.978 14.513-.791 14.235Zm0 47.522 131.086-3.962c9.105-.275 9.978-14.512.791-14.235l-131.086 3.962c-9.105.275-9.978 14.513-.791 14.235Z"/>
    <path fill="#FFB6B6" d="M179.383 301c4.691 4.565 6.137 10.686 3.231 13.67-2.907 2.984-9.065 1.702-13.758-2.866a16.379 16.379 0 0 1-4.201-6.496l-19.632-19.596 7.771-7.741 19.979 19.002a16.377 16.377 0 0 1 6.61 4.027Z"/>
    <path fill="#6C63FF" d="m132.836 251.653-19.953-65.604s-10.198-3.546-14.631 5.32c-4.434 8.865 1.143 42.775 1.143 42.775l23.243 38.342 37.245 28.37 9.311-10.196-36.358-39.007Z"/>
  </g>
  <defs>
    <clipPath id="a">
      <path fill="#fff" d="M0 0h756v426H0z"/>
    </clipPath>
  </defs>
</svg>
