<svg xmlns="http://www.w3.org/2000/svg" width="431" height="430" fill="none" viewBox="0 0 431 430">
  <g clip-path="url(#a)">
    <path fill="#979797"
      d="M284.29 113.923h-70.741a10.16 10.16 0 0 1-4.472-1.022 10.19 10.19 0 0 1-3.571-2.885 10.354 10.354 0 0 1-1.931-8.865 179.755 179.755 0 0 0 0-83.285 10.354 10.354 0 0 1 1.931-8.864 10.162 10.162 0 0 1 8.043-3.907h70.741a10.29 10.29 0 0 1 6.662 2.471 10.342 10.342 0 0 1 3.486 6.204 301.288 301.288 0 0 1 0 91.477 10.342 10.342 0 0 1-3.486 6.204 10.297 10.297 0 0 1-6.662 2.472Z" />
    <path fill="#fff"
      d="M213.549 10.43a4.88 4.88 0 0 0-3.863 1.875 5.039 5.039 0 0 0-.935 4.317 185.12 185.12 0 0 1 0 85.773 5.04 5.04 0 0 0 .934 4.316 4.886 4.886 0 0 0 3.864 1.876h70.741a4.948 4.948 0 0 0 3.203-1.177 4.965 4.965 0 0 0 1.684-2.974 295.977 295.977 0 0 0 0-89.855 4.965 4.965 0 0 0-1.684-2.974 4.945 4.945 0 0 0-3.203-1.177h-70.741Z" />
    <path fill="#E6E6E6"
      d="M268.853 36.089h-37.122a5.319 5.319 0 0 1-3.762-1.565 5.346 5.346 0 0 1-1.561-3.771v-2.086a5.346 5.346 0 0 1 1.561-3.77 5.32 5.32 0 0 1 3.762-1.566h37.122a5.323 5.323 0 0 1 3.762 1.565 5.345 5.345 0 0 1 1.56 3.771v2.086a5.345 5.345 0 0 1-1.56 3.771 5.322 5.322 0 0 1-3.762 1.565Zm0 26.347h-37.122a5.319 5.319 0 0 1-3.762-1.564 5.346 5.346 0 0 1-1.561-3.772v-2.085a5.346 5.346 0 0 1 1.561-3.771c.997-1 2.35-1.563 3.762-1.565h37.122a5.322 5.322 0 0 1 3.762 1.565 5.345 5.345 0 0 1 1.56 3.771V57.1a5.345 5.345 0 0 1-1.56 3.772 5.322 5.322 0 0 1-3.762 1.564Zm0 26.348h-37.122a5.319 5.319 0 0 1-3.762-1.565 5.346 5.346 0 0 1-1.561-3.771v-2.085a5.346 5.346 0 0 1 1.561-3.772c.997-1 2.35-1.563 3.762-1.564h37.122a5.322 5.322 0 0 1 3.762 1.564 5.345 5.345 0 0 1 1.56 3.772v2.085a5.345 5.345 0 0 1-1.56 3.771 5.322 5.322 0 0 1-3.762 1.565Zm148.507 92.729h-70.741a10.16 10.16 0 0 1-8.043-3.907 10.354 10.354 0 0 1-1.93-8.865 179.767 179.767 0 0 0-.001-83.285 10.354 10.354 0 0 1 1.931-8.864 10.186 10.186 0 0 1 8.043-3.907h70.741c2.443.007 4.803.883 6.662 2.471a10.343 10.343 0 0 1 3.486 6.204 301.293 301.293 0 0 1 0 91.478 10.345 10.345 0 0 1-3.486 6.204 10.301 10.301 0 0 1-6.662 2.471Z" />
    <path fill="#fff"
      d="M346.619 78.02a4.883 4.883 0 0 0-3.863 1.876 5.038 5.038 0 0 0-.935 4.316 185.136 185.136 0 0 1 .001 85.774 5.04 5.04 0 0 0 .934 4.315 4.89 4.89 0 0 0 3.863 1.876h70.741a4.942 4.942 0 0 0 3.203-1.176 4.965 4.965 0 0 0 1.684-2.974 295.98 295.98 0 0 0 0-89.856 4.966 4.966 0 0 0-1.684-2.974 4.945 4.945 0 0 0-3.203-1.176h-70.741Z" />
    <path fill="#F2F2F2"
      d="M276.306 258.442h-70.742a10.607 10.607 0 0 1-8.39-4.077 10.804 10.804 0 0 1-2.014-9.244 179.312 179.312 0 0 0-.001-83.077 10.814 10.814 0 0 1-.058-4.855 10.782 10.782 0 0 1 2.073-4.388 10.607 10.607 0 0 1 8.39-4.077h70.742c2.548.008 5.011.922 6.95 2.58a10.788 10.788 0 0 1 3.636 6.473 301.726 301.726 0 0 1 0 91.612 10.788 10.788 0 0 1-3.636 6.473 10.746 10.746 0 0 1-6.95 2.58Z" />
    <path fill="#E6E6E6"
      d="M401.923 117.019h-37.122a5.321 5.321 0 0 1-3.762-1.564 5.35 5.35 0 0 1-1.561-3.771v-2.086a5.35 5.35 0 0 1 1.561-3.771 5.326 5.326 0 0 1 3.762-1.565h37.122a5.326 5.326 0 0 1 3.762 1.565 5.35 5.35 0 0 1 1.561 3.771v2.086a5.35 5.35 0 0 1-1.561 3.771 5.321 5.321 0 0 1-3.762 1.564Zm0 26.348h-37.122a5.318 5.318 0 0 1-3.762-1.565 5.348 5.348 0 0 1-1.561-3.771v-2.085a5.348 5.348 0 0 1 1.561-3.771 5.322 5.322 0 0 1 3.762-1.565h37.122a5.322 5.322 0 0 1 3.762 1.565 5.348 5.348 0 0 1 1.561 3.771v2.085a5.348 5.348 0 0 1-1.561 3.771 5.318 5.318 0 0 1-3.762 1.565Z" />
    <path fill="#fff"
      d="M241.133 223.671c11.269 0 20.404-9.158 20.404-20.455 0-11.297-9.135-20.455-20.404-20.455s-20.404 9.158-20.404 20.455c0 11.297 9.135 20.455 20.404 20.455Z" />
    <path fill="#E6E6E6"
      d="M250.892 200.548h-7.098v-7.115a2.67 2.67 0 0 0-.779-1.886 2.656 2.656 0 0 0-3.764 0 2.67 2.67 0 0 0-.779 1.886v7.115h-7.097c-.706 0-1.383.281-1.882.781a2.674 2.674 0 0 0 0 3.774c.499.5 1.176.781 1.882.781h7.097v7.115c0 .707.28 1.386.779 1.886a2.656 2.656 0 0 0 3.764 0 2.67 2.67 0 0 0 .779-1.886v-7.115h7.098c.705 0 1.382-.281 1.881-.781a2.67 2.67 0 0 0-1.881-4.555Z" />
    <path fill="#CCC"
      d="M266.86 15.119H229.6a3.99 3.99 0 0 1-2.821-1.174 4.009 4.009 0 0 1-1.171-2.828V4.002a4.009 4.009 0 0 1 1.171-2.829A3.99 3.99 0 0 1 229.6 0h37.26a3.99 3.99 0 0 1 2.821 1.173 4.009 4.009 0 0 1 1.171 2.83v7.114a4.009 4.009 0 0 1-1.171 2.828 3.99 3.99 0 0 1-2.821 1.174Zm134.844 68.48h-37.259a3.993 3.993 0 0 1-2.822-1.174 4.012 4.012 0 0 1-1.17-2.828v-7.115a4.012 4.012 0 0 1 1.17-2.829 3.993 3.993 0 0 1 2.822-1.173h37.259a3.991 3.991 0 0 1 2.822 1.173 4.017 4.017 0 0 1 1.171 2.829v7.115a4.017 4.017 0 0 1-1.171 2.828 3.99 3.99 0 0 1-2.822 1.174Z" />
    <path fill="#FFB8B8" d="M78.597 418.937h10.876l3.4-42.055H78.595l.002 42.055Z" />
    <path fill="#2F2E41"
      d="m75.823 415.378 21.419-.001a13.632 13.632 0 0 1 9.652 4.008 13.714 13.714 0 0 1 3.998 9.676v.444l-35.069.002v-14.129Z" />
    <path fill="#FFB8B8" d="M20.046 418.937h10.876l5.175-42.055H20.044l.002 42.055Z" />
    <path fill="#2F2E41"
      d="m17.272 415.378 21.419-.001a13.632 13.632 0 0 1 9.652 4.008 13.714 13.714 0 0 1 3.998 9.676v.444l-35.069.002v-14.129Zm4.704-9.726a4.411 4.411 0 0 1-2.995-1.173 4.417 4.417 0 0 1-1.433-3.145l-4.362-156.715 61.932 15.521 19.109 57.467a62.81 62.81 0 0 1 3.145 22.967l-2.373 55.706a4.449 4.449 0 0 1-1.37 3.006 4.426 4.426 0 0 1-3.06 1.226H80.18a4.45 4.45 0 0 1-2.914-1.103 4.471 4.471 0 0 1-1.481-2.747l-7.425-61.491a33.69 33.69 0 0 0-4.907-13.486l-14.61-23.191a.885.885 0 0 0-1.407-.123.889.889 0 0 0-.224.487L35.747 401.212a4.445 4.445 0 0 1-1.368 2.715 4.426 4.426 0 0 1-2.79 1.195l-9.361.522a4.26 4.26 0 0 1-.253.008Z" />
    <path fill="#FFB8B8"
      d="M64.812 143.156c12.034 0 21.789-9.78 21.789-21.843 0-12.064-9.755-21.844-21.789-21.844s-21.789 9.78-21.789 21.844c0 12.063 9.755 21.843 21.789 21.843Z" />
    <path fill="#ffe863"
      d="M74.822 266.513c-.375 0-.749-.048-1.112-.141l-61.447-15.795a4.434 4.434 0 0 1-2.653-1.937 4.456 4.456 0 0 1-.597-3.235l14.112-76.209a27.788 27.788 0 0 1 5.632-12.022 27.699 27.699 0 0 1 10.558-8.024 26.654 26.654 0 0 1 25.075 1.846 43.7 43.7 0 0 1 2.575 1.744 27.517 27.517 0 0 1 8.135 9.594 27.59 27.59 0 0 1 3.024 12.221l1.123 87.449a4.46 4.46 0 0 1-2.718 4.16 4.435 4.435 0 0 1-1.707.349Z" />
    <path fill="#FFB8B8"
      d="M18.585 267.409a8.952 8.952 0 0 1-1.203-7.47 8.944 8.944 0 0 1 4.941-5.721l-2.733-31.662 14.484 7.869.374 28.861a9.012 9.012 0 0 1-.057 6.388 8.983 8.983 0 0 1-4.275 4.737 8.947 8.947 0 0 1-6.335.696 8.968 8.968 0 0 1-5.196-3.698Z" />
    <path fill="#ffe863"
      d="M23.76 250.031a4.903 4.903 0 0 1-3.461-1.44 4.891 4.891 0 0 1-1.275-2.259l-7.118-28.356a42.222 42.222 0 0 1 3.337-29.468l14.912-29.244a13.817 13.817 0 0 1 6.341-8.324 13.756 13.756 0 0 1 10.344-1.475 13.641 13.641 0 0 1 8.405 6.315 13.868 13.868 0 0 1 1.468 10.595L35.486 213.96l.252 28.491a4.902 4.902 0 0 1-3.18 4.629l-7.103 2.644a4.837 4.837 0 0 1-1.696.307Z" />
    <path fill="#FFB8B8"
      d="M125.368 255.763a8.904 8.904 0 0 1-3.655-1.264 8.943 8.943 0 0 1-4.157-6.316 8.957 8.957 0 0 1 .277-3.865l-25.72-18.578 15.397-5.872 22.065 18.542a8.985 8.985 0 0 1 4.792 4.211 9.018 9.018 0 0 1 .793 6.339 8.994 8.994 0 0 1-3.607 5.267 8.95 8.95 0 0 1-6.185 1.536Z" />
    <path fill="#ffe863"
      d="M111.903 242.197a4.907 4.907 0 0 1-2.185-.517l-26.08-13.089a42.098 42.098 0 0 1-20.104-21.758l-12.382-30.408a13.85 13.85 0 0 1-2.156-10.249 13.826 13.826 0 0 1 5.632-8.822 13.598 13.598 0 0 1 10.282-2.262 13.79 13.79 0 0 1 8.943 5.792l22.13 47.17 21.704 18.394a4.922 4.922 0 0 1 1.426 5.436l-2.635 7.122a4.867 4.867 0 0 1-1.78 2.309 4.873 4.873 0 0 1-2.795.882Z" />
    <path fill="#2F2E41"
      d="M60.236 143.49c1.158.508 3.529-8.74 2.467-10.589-1.58-2.751-1.486-2.731-2.534-4.551-1.049-1.82-1.283-4.311.074-5.912 1.358-1.601 4.5-1.389 5.12.619-.4-3.814 3.363-6.879 7.09-7.74 3.727-.862 7.658-.327 11.406-1.094 4.349-.889 8.874-4.544 7.139-9.338a6.75 6.75 0 0 0-1.314-2.165c-2.005-2.26-4.81-3.225-7.551-4.158-5.705-1.94-11.565-3.906-17.585-3.692A25.507 25.507 0 0 0 50.8 99.773a25.604 25.604 0 0 0-8.828 11.647 23.33 23.33 0 0 0-.96 3.58c-2.067 11.139 4.385 22.125 14.864 26.367l4.36 2.123Z" />
    <path fill="#000" d="m34.51 243.097.494-29.285 15.474-31.19-12.42 32.016-3.548 28.459Z" opacity=".2" />
    <path fill="#E6E6E6"
      d="m174.834 316.592-65.327-27.21a10.173 10.173 0 0 1-3.738-2.663 10.232 10.232 0 0 1-2.194-4.039 10.371 10.371 0 0 1 1.61-8.929 179.556 179.556 0 0 0 31.875-76.91 10.342 10.342 0 0 1 5.176-7.444 10.166 10.166 0 0 1 8.923-.514l65.327 27.21a10.322 10.322 0 0 1 5.206 4.845 10.362 10.362 0 0 1 .845 7.07 301.01 301.01 0 0 1-35.011 84.476 10.32 10.32 0 0 1-5.594 4.388 10.29 10.29 0 0 1-7.098-.28Z" />
    <path fill="#fff"
      d="M149.117 193.811a4.868 4.868 0 0 0-4.285.245 5.03 5.03 0 0 0-2.516 3.627 184.939 184.939 0 0 1-32.827 79.209 5.033 5.033 0 0 0-.789 4.344 4.89 4.89 0 0 0 2.849 3.219l65.327 27.21a4.942 4.942 0 0 0 3.408.145 4.956 4.956 0 0 0 2.694-2.098 295.659 295.659 0 0 0 34.39-82.979 4.975 4.975 0 0 0-.417-3.394 4.952 4.952 0 0 0-2.507-2.318l-65.327-27.21Z" />
    <path fill="#000000"
      d="m183.901 254.382-34.281-14.279a5.335 5.335 0 0 1-2.876-2.892 5.352 5.352 0 0 1 .003-4.083l.798-1.925a5.333 5.333 0 0 1 2.884-2.883 5.318 5.318 0 0 1 4.073.002l34.281 14.279a5.33 5.33 0 0 1 2.875 2.892 5.352 5.352 0 0 1-.002 4.083l-.798 1.925a5.335 5.335 0 0 1-2.885 2.883 5.316 5.316 0 0 1-4.072-.002Zm-10.085 24.331-34.281-14.279a5.336 5.336 0 0 1-2.875-2.892 5.357 5.357 0 0 1 .002-4.083l.798-1.925a5.338 5.338 0 0 1 2.885-2.883 5.318 5.318 0 0 1 4.073.002l34.281 14.279a5.33 5.33 0 0 1 2.875 2.892 5.352 5.352 0 0 1-.002 4.083l-.798 1.926a5.336 5.336 0 0 1-2.885 2.882 5.318 5.318 0 0 1-4.073-.002Z" />
    <path fill="#CCC"
      d="M197.637 220.187a3.985 3.985 0 0 1-1.497-.294l-34.543-14.001a4 4 0 0 1-2.177-2.148 4.02 4.02 0 0 1-.028-3.062l2.66-6.596a3.997 3.997 0 0 1 2.143-2.184 3.98 3.98 0 0 1 3.055-.026l34.543 14a4.001 4.001 0 0 1 2.177 2.149 4.02 4.02 0 0 1 .028 3.062l-2.66 6.596a4.01 4.01 0 0 1-3.701 2.504ZM125.086 430H.887a.886.886 0 0 1-.887-.889.89.89 0 0 1 .887-.89h124.199a.887.887 0 0 1 .627 1.518.885.885 0 0 1-.627.261Z" />
  </g>
  <defs>
    <clipPath id="a">
      <path fill="#fff" d="M0 0h431v430H0z" />
    </clipPath>
  </defs>
</svg>