<?xml version="1.0" standalone="no"?>
<!DOCTYPE svg PUBLIC "-//W3C//DTD SVG 20010904//EN"
 "http://www.w3.org/TR/2001/REC-SVG-20010904/DTD/svg10.dtd">
<svg version="1.0" xmlns="http://www.w3.org/2000/svg"
 width="1280.000000pt" height="640.000000pt" viewBox="0 0 1280.000000 640.000000"
 preserveAspectRatio="xMidYMid meet">
<g transform="translate(0.000000,640.000000) scale(0.100000,-0.100000)"
fill="#000000" stroke="none">
<path d="M6406 4441 c-3 -4 -1157 -966 -2565 -2137 -1408 -1170 -2559 -2130
-2557 -2131 2 -2 617 1 1367 7 750 5 1898 13 2552 16 835 5 1190 10 1196 18 4
6 88 630 185 1386 262 2033 274 2128 286 2210 28 198 80 605 80 622 0 17 -14
18 -269 18 -149 0 -272 -4 -275 -9z"/>
<path d="M7100 4423 c0 -16 7 -80 15 -143 51 -380 167 -1273 371 -2855 94
-730 161 -1213 168 -1217 6 -4 225 -8 486 -8 439 0 2064 -11 3875 -25 l750 -6
-30 30 c-16 16 -1173 979 -2569 2140 l-2540 2111 -263 0 -263 0 0 -27z"/>
</g>
</svg>
